<svg xmlns="http://www.w3.org/2000/svg" viewBox="0 0 1000 760" preserveAspectRatio="xMidYMid slice" role="img" aria-label="Line of Credit"><defs>
      <linearGradient id="bg_2332" x1="0" y1="0" x2="1" y2="1">
        <stop offset="0" stop-color="#0a1622"/><stop offset="1" stop-color="#1b3a52"/></linearGradient>
      <radialGradient id="gl_2332" cx="80%" cy="30%" r="60%">
        <stop offset="0" stop-color="#f5a623" stop-opacity="0.3"/><stop offset="1" stop-color="#f5a623" stop-opacity="0"/></radialGradient>
      <pattern id="d_2332" width="22" height="22" patternUnits="userSpaceOnUse">
        <circle cx="2" cy="2" r="1.2" fill="#fff" opacity="0.05"/></pattern></defs><rect width="1000" height="760" fill="url(#bg_2332)"/><rect width="1000" height="760" fill="url(#d_2332)"/><rect width="1000" height="760" fill="url(#gl_2332)"/><rect x="0" y="547.1999999999999" width="1000" height="212.80000000000007" fill="#0a1622" opacity="0.55"/><rect x="0" y="547.1999999999999" width="1000" height="3" fill="#f5a623" opacity="0.7"/><rect x="0.0" y="651.5999999999999" width="33.333333333333336" height="4" fill="#f5a623" opacity="0.4"/><rect x="83.33333333333333" y="651.5999999999999" width="33.333333333333336" height="4" fill="#f5a623" opacity="0.4"/><rect x="166.66666666666666" y="651.5999999999999" width="33.333333333333336" height="4" fill="#f5a623" opacity="0.4"/><rect x="250.0" y="651.5999999999999" width="33.333333333333336" height="4" fill="#f5a623" opacity="0.4"/><rect x="333.3333333333333" y="651.5999999999999" width="33.333333333333336" height="4" fill="#f5a623" opacity="0.4"/><rect x="416.66666666666663" y="651.5999999999999" width="33.333333333333336" height="4" fill="#f5a623" opacity="0.4"/><rect x="500.0" y="651.5999999999999" width="33.333333333333336" height="4" fill="#f5a623" opacity="0.4"/><rect x="583.3333333333333" y="651.5999999999999" width="33.333333333333336" height="4" fill="#f5a623" opacity="0.4"/><rect x="666.6666666666666" y="651.5999999999999" width="33.333333333333336" height="4" fill="#f5a623" opacity="0.4"/><rect x="750.0" y="651.5999999999999" width="33.333333333333336" height="4" fill="#f5a623" opacity="0.4"/><rect x="833.3333333333333" y="651.5999999999999" width="33.333333333333336" height="4" fill="#f5a623" opacity="0.4"/><rect x="916.6666666666666" y="651.5999999999999" width="33.333333333333336" height="4" fill="#f5a623" opacity="0.4"/><rect x="1000.0" y="651.5999999999999" width="33.333333333333336" height="4" fill="#f5a623" opacity="0.4"/><g transform="translate(120.0,119.06666666666666) scale(8.233333333333333)" fill="#f5a623" opacity="0.94">
      <rect x="38" y="6" width="74" height="34" rx="3"/>
      <path d="M2 18 h18 l12 8 v14 h-30 z"/>
      <rect x="6" y="22" width="11" height="9" rx="1" fill="#0a1622" opacity="0.5"/>
      <circle cx="15" cy="46" r="7"/><circle cx="78" cy="46" r="7"/><circle cx="96" cy="46" r="7"/>
    </g><g transform="translate(22,22)">
      <rect width="153.20000000000002" height="32" rx="7" fill="#0a1622" opacity="0.65"/>
      <rect width="5" height="32" rx="2" fill="#f5a623"/>
      <text x="18" y="21" font-family="Oswald,sans-serif" font-size="13" letter-spacing="1.6" fill="#e9eef3">LINE OF CREDIT</text></g></svg>