<svg xmlns="http://www.w3.org/2000/svg" viewBox="0 0 900 680" preserveAspectRatio="xMidYMid slice" role="img" aria-label="Nationwide Fleet"><defs><linearGradient id="g_4075" x1="0" y1="0" x2="1" y2="1">
      <stop offset="0" stop-color="#0c1c2c"/>
      <stop offset="1" stop-color="#1b3a52"/></linearGradient></defs><rect width="900" height="680" fill="url(#g_4075)"/><defs><pattern id="dts" width="22" height="22" patternUnits="userSpaceOnUse"><circle cx="2" cy="2" r="1.4" fill="#ffffff" opacity="0.06"/></pattern></defs><rect width="900" height="680" fill="url(#dts)"/><polygon points="558.0,0 900,0 900,680 702.0,680" fill="#f5a623" opacity="0.10"/><rect x="0" y="503.2" width="900" height="176.8" fill="#0c1c2c" opacity="0.5"/><rect x="0" y="503.2" width="900" height="3" fill="#f5a623" opacity="0.7"/><rect x="0.0" y="589.6" width="33.75" height="4" fill="#f5a623" opacity="0.5"/><rect x="75.0" y="589.6" width="33.75" height="4" fill="#f5a623" opacity="0.5"/><rect x="150.0" y="589.6" width="33.75" height="4" fill="#f5a623" opacity="0.5"/><rect x="225.0" y="589.6" width="33.75" height="4" fill="#f5a623" opacity="0.5"/><rect x="300.0" y="589.6" width="33.75" height="4" fill="#f5a623" opacity="0.5"/><rect x="375.0" y="589.6" width="33.75" height="4" fill="#f5a623" opacity="0.5"/><rect x="450.0" y="589.6" width="33.75" height="4" fill="#f5a623" opacity="0.5"/><rect x="525.0" y="589.6" width="33.75" height="4" fill="#f5a623" opacity="0.5"/><rect x="600.0" y="589.6" width="33.75" height="4" fill="#f5a623" opacity="0.5"/><rect x="675.0" y="589.6" width="33.75" height="4" fill="#f5a623" opacity="0.5"/><rect x="750.0" y="589.6" width="33.75" height="4" fill="#f5a623" opacity="0.5"/><rect x="825.0" y="589.6" width="33.75" height="4" fill="#f5a623" opacity="0.5"/><rect x="900.0" y="589.6" width="33.75" height="4" fill="#f5a623" opacity="0.5"/><g transform="translate(90.0,90.66666666666663) scale(7.933333333333334)" fill="#f5a623" opacity="0.92">
      <rect x="38" y="6" width="70" height="34" rx="3"/>
      <path d="M2 18 h30 v22 h-30 z"/>
      <path d="M2 18 h18 l10 8 v14 h-28 z" fill="#f5a623"/>
      <rect x="6" y="22" width="10" height="9" rx="1" fill="#0c1c2c" opacity="0.55"/>
      <circle cx="14" cy="46" r="7"/><circle cx="14" cy="46" r="3" fill="#0c1c2c" opacity="0.6"/>
      <circle cx="74" cy="46" r="7"/><circle cx="74" cy="46" r="3" fill="#0c1c2c" opacity="0.6"/>
      <circle cx="92" cy="46" r="7"/><circle cx="92" cy="46" r="3" fill="#0c1c2c" opacity="0.6"/>
    </g><g transform="translate(495.00000000000006,281.0666666666666) scale(5.553333333333333)" fill="#ffffff" opacity="0.06">
      <rect x="38" y="6" width="70" height="34" rx="3"/>
      <path d="M2 18 h30 v22 h-30 z"/>
      <path d="M2 18 h18 l10 8 v14 h-28 z" fill="#ffffff"/>
      <rect x="6" y="22" width="10" height="9" rx="1" fill="#0c1c2c" opacity="0.55"/>
      <circle cx="14" cy="46" r="7"/><circle cx="14" cy="46" r="3" fill="#0c1c2c" opacity="0.6"/>
      <circle cx="74" cy="46" r="7"/><circle cx="74" cy="46" r="3" fill="#0c1c2c" opacity="0.6"/>
      <circle cx="92" cy="46" r="7"/><circle cx="92" cy="46" r="3" fill="#0c1c2c" opacity="0.6"/>
    </g><g transform="translate(20,20)">
      <rect width="165.6" height="30" rx="6" fill="#0c1c2c" opacity="0.6"/>
      <rect width="5" height="30" rx="2" fill="#f5a623"/>
      <text x="16" y="20" font-family="Oswald, sans-serif" font-size="13" letter-spacing="1.5"
        fill="#e9eef3" text-transform="uppercase">NATIONWIDE FLEET</text></g></svg>