<svg xmlns="http://www.w3.org/2000/svg" viewBox="0 0 1600 900" preserveAspectRatio="xMidYMid slice" role="img" aria-label="Highway at dusk"><defs>
      <linearGradient id="sky" x1="0" y1="0" x2="0" y2="1">
        <stop offset="0" stop-color="#0a1622"/><stop offset="0.55" stop-color="#102234"/><stop offset="1" stop-color="#1b3a52"/>
      </linearGradient>
      <radialGradient id="glow" cx="78%" cy="62%" r="55%">
        <stop offset="0" stop-color="#f5a623" stop-opacity="0.45"/>
        <stop offset="0.4" stop-color="#f5a623" stop-opacity="0.12"/>
        <stop offset="1" stop-color="#f5a623" stop-opacity="0"/>
      </radialGradient>
      <linearGradient id="road" x1="0" y1="0" x2="0" y2="1">
        <stop offset="0" stop-color="#0c1825"/><stop offset="1" stop-color="#060d15"/>
      </linearGradient>
      <pattern id="dots" width="26" height="26" patternUnits="userSpaceOnUse">
        <circle cx="2" cy="2" r="1.3" fill="#ffffff" opacity="0.05"/></pattern>
    </defs><rect width="1600" height="900" fill="url(#sky)"/><rect width="1600" height="900" fill="url(#dots)"/><rect width="1600" height="900" fill="url(#glow)"/><path d="M0 540 L220 430 L420 520 L640 400 L860 510 L1100 420 L1320 520 L1600 440 L1600 640 L0 640 Z" fill="#0a1622" opacity="0.6"/><path d="M0 580 L300 500 L560 560 L820 480 L1080 560 L1340 500 L1600 560 L1600 700 L0 700 Z" fill="#0a1622" opacity="0.85"/><rect x="0" y="640" width="1600" height="260" fill="url(#road)"/><polygon points="700,640 900,640 1250,900 350,900" fill="#0e1c2a"/><polygon points="795,640 805,640 860,900 740,900" fill="#f5a623" opacity="0.25"/><rect x="797.0" y="658" width="6" height="20" fill="#f5a623" opacity="0.5"/><rect x="794.5" y="710" width="11" height="25" fill="#f5a623" opacity="0.45"/><rect x="792.0" y="762" width="16" height="30" fill="#f5a623" opacity="0.4"/><rect x="789.5" y="814" width="21" height="35" fill="#f5a623" opacity="0.35"/><rect x="787.0" y="866" width="26" height="40" fill="#f5a623" opacity="0.3"/><rect x="784.5" y="918" width="31" height="45" fill="#f5a623" opacity="0.25"/><rect x="782.0" y="970" width="36" height="50" fill="#f5a623" opacity="0.19999999999999996"/><g transform="translate(150,505) scale(2.2)" fill="#f5a623" opacity="0.96">
      <rect x="38" y="6" width="74" height="34" rx="3"/>
      <path d="M2 18 h18 l12 8 v14 h-30 z"/>
      <rect x="6" y="22" width="11" height="9" rx="1" fill="#0a1622" opacity="0.5"/>
      <circle cx="15" cy="46" r="7"/><circle cx="78" cy="46" r="7"/><circle cx="96" cy="46" r="7"/>
    </g><g transform="translate(150,505) scale(2.2)" fill="#ffffff" opacity="0.0">
      <rect x="38" y="6" width="74" height="34" rx="3"/>
      <path d="M2 18 h18 l12 8 v14 h-30 z"/>
      <rect x="6" y="22" width="11" height="9" rx="1" fill="#0a1622" opacity="0.5"/>
      <circle cx="15" cy="46" r="7"/><circle cx="78" cy="46" r="7"/><circle cx="96" cy="46" r="7"/>
    </g><ellipse cx="360" cy="600" rx="120" ry="22" fill="#ffc15e" opacity="0.18"/></svg>