<svg xmlns="http://www.w3.org/2000/svg" viewBox="0 0 1024 600" preserveAspectRatio="xMidYMid slice" role="img" aria-label="Freight Class"><defs><linearGradient id="g_3239" x1="0" y1="0" x2="1" y2="1">
      <stop offset="0" stop-color="#0c1c2c"/>
      <stop offset="1" stop-color="#1b3a52"/></linearGradient></defs><rect width="1024" height="600" fill="url(#g_3239)"/><defs><pattern id="dts" width="22" height="22" patternUnits="userSpaceOnUse"><circle cx="2" cy="2" r="1.4" fill="#ffffff" opacity="0.06"/></pattern></defs><rect width="1024" height="600" fill="url(#dts)"/><polygon points="634.88,0 1024,0 1024,600 798.72,600" fill="#f5a623" opacity="0.10"/><rect x="0" y="444.0" width="1024" height="156.0" fill="#0c1c2c" opacity="0.5"/><rect x="0" y="444.0" width="1024" height="3" fill="#f5a623" opacity="0.7"/><rect x="0.0" y="520.0" width="38.4" height="4" fill="#f5a623" opacity="0.5"/><rect x="85.33333333333333" y="520.0" width="38.4" height="4" fill="#f5a623" opacity="0.5"/><rect x="170.66666666666666" y="520.0" width="38.4" height="4" fill="#f5a623" opacity="0.5"/><rect x="256.0" y="520.0" width="38.4" height="4" fill="#f5a623" opacity="0.5"/><rect x="341.3333333333333" y="520.0" width="38.4" height="4" fill="#f5a623" opacity="0.5"/><rect x="426.66666666666663" y="520.0" width="38.4" height="4" fill="#f5a623" opacity="0.5"/><rect x="512.0" y="520.0" width="38.4" height="4" fill="#f5a623" opacity="0.5"/><rect x="597.3333333333333" y="520.0" width="38.4" height="4" fill="#f5a623" opacity="0.5"/><rect x="682.6666666666666" y="520.0" width="38.4" height="4" fill="#f5a623" opacity="0.5"/><rect x="768.0" y="520.0" width="38.4" height="4" fill="#f5a623" opacity="0.5"/><rect x="853.3333333333333" y="520.0" width="38.4" height="4" fill="#f5a623" opacity="0.5"/><rect x="938.6666666666666" y="520.0" width="38.4" height="4" fill="#f5a623" opacity="0.5"/><rect x="1024.0" y="520.0" width="38.4" height="4" fill="#f5a623" opacity="0.5"/><g transform="translate(102.4,80.0) scale(7.0)" fill="#f5a623" opacity="0.92">
      <rect x="38" y="6" width="70" height="34" rx="3"/>
      <path d="M2 18 h30 v22 h-30 z"/>
      <path d="M2 18 h18 l10 8 v14 h-28 z" fill="#f5a623"/>
      <rect x="6" y="22" width="10" height="9" rx="1" fill="#0c1c2c" opacity="0.55"/>
      <circle cx="14" cy="46" r="7"/><circle cx="14" cy="46" r="3" fill="#0c1c2c" opacity="0.6"/>
      <circle cx="74" cy="46" r="7"/><circle cx="74" cy="46" r="3" fill="#0c1c2c" opacity="0.6"/>
      <circle cx="92" cy="46" r="7"/><circle cx="92" cy="46" r="3" fill="#0c1c2c" opacity="0.6"/>
    </g><g transform="translate(563.2,248.0) scale(4.8999999999999995)" fill="#ffffff" opacity="0.06">
      <rect x="38" y="6" width="70" height="34" rx="3"/>
      <path d="M2 18 h30 v22 h-30 z"/>
      <path d="M2 18 h18 l10 8 v14 h-28 z" fill="#ffffff"/>
      <rect x="6" y="22" width="10" height="9" rx="1" fill="#0c1c2c" opacity="0.55"/>
      <circle cx="14" cy="46" r="7"/><circle cx="14" cy="46" r="3" fill="#0c1c2c" opacity="0.6"/>
      <circle cx="74" cy="46" r="7"/><circle cx="74" cy="46" r="3" fill="#0c1c2c" opacity="0.6"/>
      <circle cx="92" cy="46" r="7"/><circle cx="92" cy="46" r="3" fill="#0c1c2c" opacity="0.6"/>
    </g><g transform="translate(20,20)">
      <rect width="139.8" height="30" rx="6" fill="#0c1c2c" opacity="0.6"/>
      <rect width="5" height="30" rx="2" fill="#f5a623"/>
      <text x="16" y="20" font-family="Oswald, sans-serif" font-size="13" letter-spacing="1.5"
        fill="#e9eef3" text-transform="uppercase">FREIGHT CLASS</text></g></svg>