<svg xmlns="http://www.w3.org/2000/svg" viewBox="0 0 1000 760" preserveAspectRatio="xMidYMid slice" role="img" aria-label="Expert Guidance"><defs><linearGradient id="g_7491" x1="0" y1="0" x2="1" y2="1">
      <stop offset="0" stop-color="#0c1c2c"/>
      <stop offset="1" stop-color="#1b3a52"/></linearGradient></defs><rect width="1000" height="760" fill="url(#g_7491)"/><defs><pattern id="dts" width="22" height="22" patternUnits="userSpaceOnUse"><circle cx="2" cy="2" r="1.4" fill="#ffffff" opacity="0.06"/></pattern></defs><rect width="1000" height="760" fill="url(#dts)"/><polygon points="620.0,0 1000,0 1000,760 780.0,760" fill="#f5a623" opacity="0.10"/><rect x="0" y="562.4" width="1000" height="197.60000000000002" fill="#0c1c2c" opacity="0.5"/><rect x="0" y="562.4" width="1000" height="3" fill="#f5a623" opacity="0.7"/><rect x="0.0" y="659.2" width="37.5" height="4" fill="#f5a623" opacity="0.5"/><rect x="83.33333333333333" y="659.2" width="37.5" height="4" fill="#f5a623" opacity="0.5"/><rect x="166.66666666666666" y="659.2" width="37.5" height="4" fill="#f5a623" opacity="0.5"/><rect x="250.0" y="659.2" width="37.5" height="4" fill="#f5a623" opacity="0.5"/><rect x="333.3333333333333" y="659.2" width="37.5" height="4" fill="#f5a623" opacity="0.5"/><rect x="416.66666666666663" y="659.2" width="37.5" height="4" fill="#f5a623" opacity="0.5"/><rect x="500.0" y="659.2" width="37.5" height="4" fill="#f5a623" opacity="0.5"/><rect x="583.3333333333333" y="659.2" width="37.5" height="4" fill="#f5a623" opacity="0.5"/><rect x="666.6666666666666" y="659.2" width="37.5" height="4" fill="#f5a623" opacity="0.5"/><rect x="750.0" y="659.2" width="37.5" height="4" fill="#f5a623" opacity="0.5"/><rect x="833.3333333333333" y="659.2" width="37.5" height="4" fill="#f5a623" opacity="0.5"/><rect x="916.6666666666666" y="659.2" width="37.5" height="4" fill="#f5a623" opacity="0.5"/><rect x="1000.0" y="659.2" width="37.5" height="4" fill="#f5a623" opacity="0.5"/><g transform="translate(100.0,101.33333333333337) scale(8.866666666666665)" fill="#f5a623" opacity="0.92">
      <rect x="38" y="6" width="70" height="34" rx="3"/>
      <path d="M2 18 h30 v22 h-30 z"/>
      <path d="M2 18 h18 l10 8 v14 h-28 z" fill="#f5a623"/>
      <rect x="6" y="22" width="10" height="9" rx="1" fill="#0c1c2c" opacity="0.55"/>
      <circle cx="14" cy="46" r="7"/><circle cx="14" cy="46" r="3" fill="#0c1c2c" opacity="0.6"/>
      <circle cx="74" cy="46" r="7"/><circle cx="74" cy="46" r="3" fill="#0c1c2c" opacity="0.6"/>
      <circle cx="92" cy="46" r="7"/><circle cx="92" cy="46" r="3" fill="#0c1c2c" opacity="0.6"/>
    </g><g transform="translate(550.0,314.1333333333333) scale(6.206666666666665)" fill="#ffffff" opacity="0.06">
      <rect x="38" y="6" width="70" height="34" rx="3"/>
      <path d="M2 18 h30 v22 h-30 z"/>
      <path d="M2 18 h18 l10 8 v14 h-28 z" fill="#ffffff"/>
      <rect x="6" y="22" width="10" height="9" rx="1" fill="#0c1c2c" opacity="0.55"/>
      <circle cx="14" cy="46" r="7"/><circle cx="14" cy="46" r="3" fill="#0c1c2c" opacity="0.6"/>
      <circle cx="74" cy="46" r="7"/><circle cx="74" cy="46" r="3" fill="#0c1c2c" opacity="0.6"/>
      <circle cx="92" cy="46" r="7"/><circle cx="92" cy="46" r="3" fill="#0c1c2c" opacity="0.6"/>
    </g><g transform="translate(20,20)">
      <rect width="157.0" height="30" rx="6" fill="#0c1c2c" opacity="0.6"/>
      <rect width="5" height="30" rx="2" fill="#f5a623"/>
      <text x="16" y="20" font-family="Oswald, sans-serif" font-size="13" letter-spacing="1.5"
        fill="#e9eef3" text-transform="uppercase">EXPERT GUIDANCE</text></g></svg>