<svg xmlns="http://www.w3.org/2000/svg" viewBox="0 0 768 480" preserveAspectRatio="xMidYMid slice" role="img" aria-label="Press Release"><defs><linearGradient id="g_9278" x1="0" y1="0" x2="1" y2="1">
      <stop offset="0" stop-color="#0c1c2c"/>
      <stop offset="1" stop-color="#1b3a52"/></linearGradient></defs><rect width="768" height="480" fill="url(#g_9278)"/><defs><pattern id="dts" width="22" height="22" patternUnits="userSpaceOnUse"><circle cx="2" cy="2" r="1.4" fill="#ffffff" opacity="0.06"/></pattern></defs><rect width="768" height="480" fill="url(#dts)"/><polygon points="476.15999999999997,0 768,0 768,480 599.04,480" fill="#f5a623" opacity="0.10"/><rect x="0" y="355.2" width="768" height="124.80000000000001" fill="#0c1c2c" opacity="0.5"/><rect x="0" y="355.2" width="768" height="3" fill="#f5a623" opacity="0.7"/><rect x="0.0" y="415.6" width="28.8" height="4" fill="#f5a623" opacity="0.5"/><rect x="64.0" y="415.6" width="28.8" height="4" fill="#f5a623" opacity="0.5"/><rect x="128.0" y="415.6" width="28.8" height="4" fill="#f5a623" opacity="0.5"/><rect x="192.0" y="415.6" width="28.8" height="4" fill="#f5a623" opacity="0.5"/><rect x="256.0" y="415.6" width="28.8" height="4" fill="#f5a623" opacity="0.5"/><rect x="320.0" y="415.6" width="28.8" height="4" fill="#f5a623" opacity="0.5"/><rect x="384.0" y="415.6" width="28.8" height="4" fill="#f5a623" opacity="0.5"/><rect x="448.0" y="415.6" width="28.8" height="4" fill="#f5a623" opacity="0.5"/><rect x="512.0" y="415.6" width="28.8" height="4" fill="#f5a623" opacity="0.5"/><rect x="576.0" y="415.6" width="28.8" height="4" fill="#f5a623" opacity="0.5"/><rect x="640.0" y="415.6" width="28.8" height="4" fill="#f5a623" opacity="0.5"/><rect x="704.0" y="415.6" width="28.8" height="4" fill="#f5a623" opacity="0.5"/><rect x="768.0" y="415.6" width="28.8" height="4" fill="#f5a623" opacity="0.5"/><g transform="translate(76.80000000000001,64.0) scale(5.6)" fill="#f5a623" opacity="0.92">
      <rect x="38" y="6" width="70" height="34" rx="3"/>
      <path d="M2 18 h30 v22 h-30 z"/>
      <path d="M2 18 h18 l10 8 v14 h-28 z" fill="#f5a623"/>
      <rect x="6" y="22" width="10" height="9" rx="1" fill="#0c1c2c" opacity="0.55"/>
      <circle cx="14" cy="46" r="7"/><circle cx="14" cy="46" r="3" fill="#0c1c2c" opacity="0.6"/>
      <circle cx="74" cy="46" r="7"/><circle cx="74" cy="46" r="3" fill="#0c1c2c" opacity="0.6"/>
      <circle cx="92" cy="46" r="7"/><circle cx="92" cy="46" r="3" fill="#0c1c2c" opacity="0.6"/>
    </g><g transform="translate(422.40000000000003,198.4) scale(3.9199999999999995)" fill="#ffffff" opacity="0.06">
      <rect x="38" y="6" width="70" height="34" rx="3"/>
      <path d="M2 18 h30 v22 h-30 z"/>
      <path d="M2 18 h18 l10 8 v14 h-28 z" fill="#ffffff"/>
      <rect x="6" y="22" width="10" height="9" rx="1" fill="#0c1c2c" opacity="0.55"/>
      <circle cx="14" cy="46" r="7"/><circle cx="14" cy="46" r="3" fill="#0c1c2c" opacity="0.6"/>
      <circle cx="74" cy="46" r="7"/><circle cx="74" cy="46" r="3" fill="#0c1c2c" opacity="0.6"/>
      <circle cx="92" cy="46" r="7"/><circle cx="92" cy="46" r="3" fill="#0c1c2c" opacity="0.6"/>
    </g><g transform="translate(20,20)">
      <rect width="139.8" height="30" rx="6" fill="#0c1c2c" opacity="0.6"/>
      <rect width="5" height="30" rx="2" fill="#f5a623"/>
      <text x="16" y="20" font-family="Oswald, sans-serif" font-size="13" letter-spacing="1.5"
        fill="#e9eef3" text-transform="uppercase">PRESS RELEASE</text></g></svg>